<svg xmlns="http://www.w3.org/2000/svg" viewBox="0 0 1200 722" fill="none">
  <!-- Mac window frame -->
  <rect width="1200" height="722" rx="10" fill="#e8e8e8"/>

  <!-- Title bar -->
  <rect x="0" y="0" width="1200" height="24" rx="10" fill="#e8e8e8"/>
  <rect x="0" y="8" width="1200" height="16" fill="#e8e8e8"/>

  <!-- Traffic lights -->
  <circle cx="18" cy="12" r="5" fill="#ff5f57"/>
  <circle cx="34" cy="12" r="5" fill="#febc2e"/>
  <circle cx="50" cy="12" r="5" fill="#28c840"/>

  <!-- Window title -->
  <text x="600" y="16" font-family="Inter,sans-serif" font-size="10" font-weight="500" fill="#666" text-anchor="middle">EMAK Telecom — Dashboard</text>

  <!-- Content area -->
  <rect x="0" y="24" width="1200" height="698" fill="#f7f6f5"/>
  <rect x="0" y="712" width="1200" height="10" rx="10" fill="#f7f6f5"/>

  <!-- ═══ Sidebar (lighter) ═══ -->
  <rect x="0" y="24" width="180" height="698" fill="#f0efee"/>
  <rect x="0" y="712" width="180" height="10" rx="10" fill="#f0efee"/>
  <line x1="180" y1="24" x2="180" y2="722" stroke="#e0dfde" stroke-width="1"/>

  <!-- Logo -->
  <text x="20" y="56" font-family="Inter,sans-serif" font-size="16" font-weight="700" fill="#111">EMAK</text>
  <text x="68" y="56" font-family="Inter,sans-serif" font-size="8" font-weight="500" fill="#ee7700">telecom</text>

  <!-- Search -->
  <rect x="12" y="70" width="156" height="24" rx="5" fill="#e4e3e2"/>
  <text x="24" y="86" font-family="Inter,sans-serif" font-size="9" fill="#999">Search...</text>

  <!-- Nav -->
  <rect x="12" y="106" width="156" height="28" rx="6" fill="#ee7700"/>
  <text x="34" y="124" font-family="Inter,sans-serif" font-size="11" font-weight="500" fill="#fff">Dashboard</text>

  <text x="34" y="156" font-family="Inter,sans-serif" font-size="11" fill="#666">Calls</text>
  <rect x="130" y="146" width="22" height="14" rx="7" fill="#ee7700"/>
  <text x="141" y="156" font-family="Inter,sans-serif" font-size="8" font-weight="600" fill="#fff" text-anchor="middle">12</text>

  <text x="34" y="178" font-family="Inter,sans-serif" font-size="11" fill="#666">Team Chat</text>
  <circle cx="148" cy="174" r="3" fill="#34c759"/>

  <text x="34" y="200" font-family="Inter,sans-serif" font-size="11" fill="#666">KORI AI</text>
  <text x="34" y="222" font-family="Inter,sans-serif" font-size="11" fill="#666">Contacts</text>
  <text x="34" y="244" font-family="Inter,sans-serif" font-size="11" fill="#666">Analytics</text>
  <text x="34" y="266" font-family="Inter,sans-serif" font-size="11" fill="#666">Integrations</text>
  <text x="34" y="288" font-family="Inter,sans-serif" font-size="11" fill="#666">Voicemail</text>
  <rect x="130" y="278" width="22" height="14" rx="7" fill="#ddd"/>
  <text x="141" y="288" font-family="Inter,sans-serif" font-size="8" font-weight="600" fill="#999" text-anchor="middle">3</text>
  <text x="34" y="310" font-family="Inter,sans-serif" font-size="11" fill="#666">Call Flows</text>
  <text x="34" y="332" font-family="Inter,sans-serif" font-size="11" fill="#666">Numbers</text>
  <text x="34" y="354" font-family="Inter,sans-serif" font-size="11" fill="#666">Recordings</text>

  <!-- Sidebar divider -->
  <line x1="18" y1="376" x2="162" y2="376" stroke="#ddd" stroke-width="1"/>

  <!-- Favorites -->
  <text x="18" y="396" font-family="Inter,sans-serif" font-size="8" font-weight="600" fill="#aaa">FAVORITES</text>
  <circle cx="30" cy="414" r="8" fill="#fef3c7"/>
  <text x="30" y="417" font-family="Inter,sans-serif" font-size="6" font-weight="600" fill="#92400e" text-anchor="middle">JD</text>
  <text x="44" y="417" font-family="Inter,sans-serif" font-size="9" fill="#777">John D.</text>
  <circle cx="155" cy="414" r="3" fill="#34c759"/>

  <circle cx="30" cy="434" r="8" fill="#dbeafe"/>
  <text x="30" y="437" font-family="Inter,sans-serif" font-size="6" font-weight="600" fill="#1e40af" text-anchor="middle">AL</text>
  <text x="44" y="437" font-family="Inter,sans-serif" font-size="9" fill="#777">Amy L.</text>

  <circle cx="30" cy="454" r="8" fill="#e6f9ee"/>
  <text x="30" y="457" font-family="Inter,sans-serif" font-size="6" font-weight="600" fill="#166534" text-anchor="middle">MR</text>
  <text x="44" y="457" font-family="Inter,sans-serif" font-size="9" fill="#777">Mike R.</text>
  <circle cx="155" cy="454" r="3" fill="#34c759"/>

  <!-- User profile -->
  <line x1="18" y1="660" x2="162" y2="660" stroke="#ddd" stroke-width="1"/>
  <circle cx="30" cy="686" r="12" fill="#fff"/>
  <text x="30" y="690" font-family="Inter,sans-serif" font-size="8" font-weight="600" fill="#ee7700" text-anchor="middle">SM</text>
  <text x="48" y="682" font-family="Inter,sans-serif" font-size="10" font-weight="500" fill="#333">Sarah M.</text>
  <text x="48" y="694" font-family="Inter,sans-serif" font-size="8" fill="#999">Admin · Online</text>
  <circle cx="155" cy="680" r="3" fill="#34c759"/>

  <!-- ═══ Main Content ═══ -->

  <!-- Top bar -->
  <text x="200" y="54" font-family="Inter,sans-serif" font-size="17" font-weight="600" fill="#111">Good morning, Sarah</text>
  <text x="200" y="72" font-family="Inter,sans-serif" font-size="11" fill="#999">Monday, Feb 16 · Here's what's happening today</text>

  <!-- Top right -->
  <rect x="980" y="38" width="80" height="28" rx="6" fill="#ee7700"/>
  <text x="1020" y="56" font-family="Inter,sans-serif" font-size="10" font-weight="500" fill="#fff" text-anchor="middle">+ New Call</text>

  <circle cx="1090" cy="52" r="14" fill="#fff"/>
  <circle cx="1098" cy="44" r="5" fill="#ee7700"/>
  <text x="1098" y="47" font-family="Inter,sans-serif" font-size="7" font-weight="700" fill="#fff" text-anchor="middle">4</text>

  <circle cx="1130" cy="52" r="14" fill="#fff"/>
  <circle cx="1164" cy="52" r="14" fill="#ee7700"/>
  <text x="1164" y="56" font-family="Inter,sans-serif" font-size="9" font-weight="600" fill="#fff" text-anchor="middle">SM</text>

  <!-- ═══ Stat Cards ═══ -->
  <rect x="200" y="88" width="145" height="72" rx="8" fill="#fff"/>
  <text x="214" y="106" font-family="Inter,sans-serif" font-size="9" fill="#999">Active Lines</text>
  <text x="214" y="138" font-family="Inter,sans-serif" font-size="26" font-weight="700" fill="#111">24</text>
  <rect x="252" y="124" width="26" height="14" rx="7" fill="#e6f9ee"/>
  <text x="265" y="134" font-family="Inter,sans-serif" font-size="8" font-weight="600" fill="#34c759" text-anchor="middle">+3</text>
  <polyline points="300,142 308,136 316,138 324,130 332,132 340,124" stroke="#34c759" stroke-width="1.2" fill="none" stroke-linecap="round"/>

  <rect x="355" y="88" width="145" height="72" rx="8" fill="#fff"/>
  <text x="369" y="106" font-family="Inter,sans-serif" font-size="9" fill="#999">Calls Today</text>
  <text x="369" y="138" font-family="Inter,sans-serif" font-size="26" font-weight="700" fill="#111">156</text>
  <rect x="418" y="124" width="30" height="14" rx="7" fill="#e6f9ee"/>
  <text x="433" y="134" font-family="Inter,sans-serif" font-size="8" font-weight="600" fill="#34c759" text-anchor="middle">94%</text>
  <polyline points="458,142 466,138 474,134 482,130 490,132 498,126" stroke="#34c759" stroke-width="1.2" fill="none" stroke-linecap="round"/>

  <rect x="510" y="88" width="145" height="72" rx="8" fill="#fff"/>
  <text x="524" y="106" font-family="Inter,sans-serif" font-size="9" fill="#999">KORI Handled</text>
  <text x="524" y="138" font-family="Inter,sans-serif" font-size="26" font-weight="700" fill="#7c3aed">38</text>
  <rect x="564" y="124" width="34" height="14" rx="7" fill="#f0eaff"/>
  <text x="581" y="134" font-family="Inter,sans-serif" font-size="8" font-weight="600" fill="#7c3aed" text-anchor="middle">saves</text>
  <polyline points="612,142 620,138 628,134 636,136 644,130 652,124" stroke="#7c3aed" stroke-width="1.2" fill="none" stroke-linecap="round"/>

  <rect x="665" y="88" width="145" height="72" rx="8" fill="#fff"/>
  <text x="679" y="106" font-family="Inter,sans-serif" font-size="9" fill="#999">Avg. Wait</text>
  <text x="679" y="138" font-family="Inter,sans-serif" font-size="26" font-weight="700" fill="#111">6s</text>
  <rect x="714" y="124" width="26" height="14" rx="7" fill="#e6f9ee"/>
  <text x="727" y="134" font-family="Inter,sans-serif" font-size="8" font-weight="600" fill="#34c759" text-anchor="middle">-2s</text>

  <rect x="820" y="88" width="145" height="72" rx="8" fill="#fff"/>
  <text x="834" y="106" font-family="Inter,sans-serif" font-size="9" fill="#999">Missed Calls</text>
  <text x="834" y="138" font-family="Inter,sans-serif" font-size="26" font-weight="700" fill="#111">9</text>
  <rect x="860" y="124" width="26" height="14" rx="7" fill="#fef3c7"/>
  <text x="873" y="134" font-family="Inter,sans-serif" font-size="8" font-weight="600" fill="#92400e" text-anchor="middle">6%</text>

  <rect x="975" y="88" width="145" height="72" rx="8" fill="#fff"/>
  <text x="989" y="106" font-family="Inter,sans-serif" font-size="9" fill="#999">Revenue</text>
  <text x="989" y="138" font-family="Inter,sans-serif" font-size="26" font-weight="700" fill="#111">$4.2k</text>
  <rect x="1054" y="124" width="30" height="14" rx="7" fill="#e6f9ee"/>
  <text x="1069" y="134" font-family="Inter,sans-serif" font-size="8" font-weight="600" fill="#34c759" text-anchor="middle">+18%</text>

  <!-- ═══ Call Activity Chart ═══ -->
  <rect x="200" y="172" width="520" height="210" rx="10" fill="#fff"/>
  <text x="216" y="196" font-family="Inter,sans-serif" font-size="12" font-weight="600" fill="#111">Call Activity</text>

  <rect x="430" y="183" width="40" height="18" rx="9" fill="#111"/>
  <text x="450" y="196" font-family="Inter,sans-serif" font-size="8" font-weight="500" fill="#fff" text-anchor="middle">Week</text>
  <rect x="476" y="183" width="44" height="18" rx="9" fill="#f0f0f0"/>
  <text x="498" y="196" font-family="Inter,sans-serif" font-size="8" font-weight="500" fill="#999" text-anchor="middle">Month</text>
  <rect x="526" y="183" width="36" height="18" rx="9" fill="#f0f0f0"/>
  <text x="544" y="196" font-family="Inter,sans-serif" font-size="8" font-weight="500" fill="#999" text-anchor="middle">Year</text>

  <text x="220" y="228" font-family="Inter,sans-serif" font-size="8" fill="#ddd">200</text>
  <text x="220" y="252" font-family="Inter,sans-serif" font-size="8" fill="#ddd">150</text>
  <text x="220" y="276" font-family="Inter,sans-serif" font-size="8" fill="#ddd">100</text>
  <text x="224" y="300" font-family="Inter,sans-serif" font-size="8" fill="#ddd">50</text>
  <text x="228" y="324" font-family="Inter,sans-serif" font-size="8" fill="#ddd">0</text>

  <line x1="244" y1="224" x2="700" y2="224" stroke="#f5f5f5" stroke-width="1"/>
  <line x1="244" y1="248" x2="700" y2="248" stroke="#f5f5f5" stroke-width="1"/>
  <line x1="244" y1="272" x2="700" y2="272" stroke="#f5f5f5" stroke-width="1"/>
  <line x1="244" y1="296" x2="700" y2="296" stroke="#f5f5f5" stroke-width="1"/>
  <line x1="244" y1="320" x2="700" y2="320" stroke="#f5f5f5" stroke-width="1"/>

  <rect x="260" y="262" width="18" height="58" rx="3" fill="#ee7700"/>
  <rect x="282" y="284" width="18" height="36" rx="3" fill="#7c3aed" opacity="0.35"/>
  <text x="280" y="336" font-family="Inter,sans-serif" font-size="8" fill="#bbb" text-anchor="middle">Mon</text>

  <rect x="320" y="240" width="18" height="80" rx="3" fill="#ee7700"/>
  <rect x="342" y="270" width="18" height="50" rx="3" fill="#7c3aed" opacity="0.35"/>
  <text x="340" y="336" font-family="Inter,sans-serif" font-size="8" fill="#bbb" text-anchor="middle">Tue</text>

  <rect x="380" y="230" width="18" height="90" rx="3" fill="#ee7700"/>
  <rect x="402" y="262" width="18" height="58" rx="3" fill="#7c3aed" opacity="0.35"/>
  <text x="400" y="336" font-family="Inter,sans-serif" font-size="8" fill="#bbb" text-anchor="middle">Wed</text>

  <rect x="440" y="246" width="18" height="74" rx="3" fill="#ee7700"/>
  <rect x="462" y="276" width="18" height="44" rx="3" fill="#7c3aed" opacity="0.35"/>
  <text x="460" y="336" font-family="Inter,sans-serif" font-size="8" fill="#bbb" text-anchor="middle">Thu</text>

  <rect x="500" y="234" width="18" height="86" rx="3" fill="#ee7700"/>
  <rect x="522" y="268" width="18" height="52" rx="3" fill="#7c3aed" opacity="0.35"/>
  <text x="520" y="336" font-family="Inter,sans-serif" font-size="8" fill="#bbb" text-anchor="middle">Fri</text>

  <rect x="560" y="292" width="18" height="28" rx="3" fill="#ee7700"/>
  <rect x="582" y="304" width="18" height="16" rx="3" fill="#7c3aed" opacity="0.35"/>
  <text x="580" y="336" font-family="Inter,sans-serif" font-size="8" fill="#bbb" text-anchor="middle">Sat</text>

  <rect x="620" y="302" width="18" height="18" rx="3" fill="#ee7700"/>
  <text x="630" y="336" font-family="Inter,sans-serif" font-size="8" fill="#bbb" text-anchor="middle">Sun</text>

  <rect x="560" y="354" width="6" height="6" rx="1.5" fill="#ee7700"/>
  <text x="570" y="360" font-family="Inter,sans-serif" font-size="8" fill="#bbb">Total</text>
  <rect x="600" y="354" width="6" height="6" rx="1.5" fill="#7c3aed" opacity="0.5"/>
  <text x="610" y="360" font-family="Inter,sans-serif" font-size="8" fill="#bbb">KORI</text>

  <!-- ═══ Recent Calls ═══ -->
  <rect x="732" y="172" width="210" height="210" rx="10" fill="#fff"/>
  <text x="748" y="196" font-family="Inter,sans-serif" font-size="12" font-weight="600" fill="#111">Recent Calls</text>
  <text x="892" y="196" font-family="Inter,sans-serif" font-size="9" fill="#ee7700">View all</text>

  <circle cx="760" cy="220" r="10" fill="#fef3c7"/>
  <text x="760" y="223" font-family="Inter,sans-serif" font-size="7" font-weight="600" fill="#92400e" text-anchor="middle">JD</text>
  <text x="776" y="217" font-family="Inter,sans-serif" font-size="10" font-weight="500" fill="#111">John D.</text>
  <text x="776" y="228" font-family="Inter,sans-serif" font-size="8" fill="#34c759">Answered · 4m</text>
  <text x="932" y="222" font-family="Inter,sans-serif" font-size="8" fill="#ccc" text-anchor="end">2min</text>

  <circle cx="760" cy="250" r="10" fill="#f0eaff"/>
  <text x="760" y="253" font-family="Inter,sans-serif" font-size="7" font-weight="600" fill="#7c3aed" text-anchor="middle">AL</text>
  <text x="776" y="247" font-family="Inter,sans-serif" font-size="10" font-weight="500" fill="#111">Amy L.</text>
  <text x="776" y="258" font-family="Inter,sans-serif" font-size="8" fill="#7c3aed">KORI · 2m</text>
  <text x="932" y="252" font-family="Inter,sans-serif" font-size="8" fill="#ccc" text-anchor="end">8min</text>

  <circle cx="760" cy="280" r="10" fill="#dbeafe"/>
  <text x="760" y="283" font-family="Inter,sans-serif" font-size="7" font-weight="600" fill="#1e40af" text-anchor="middle">MR</text>
  <text x="776" y="277" font-family="Inter,sans-serif" font-size="10" font-weight="500" fill="#111">Mike R.</text>
  <text x="776" y="288" font-family="Inter,sans-serif" font-size="8" fill="#34c759">Answered · 8m</text>
  <text x="932" y="282" font-family="Inter,sans-serif" font-size="8" fill="#ccc" text-anchor="end">15min</text>

  <circle cx="760" cy="310" r="10" fill="#fce7f3"/>
  <text x="760" y="313" font-family="Inter,sans-serif" font-size="7" font-weight="600" fill="#be185d" text-anchor="middle">SK</text>
  <text x="776" y="307" font-family="Inter,sans-serif" font-size="10" font-weight="500" fill="#111">Sara K.</text>
  <text x="776" y="318" font-family="Inter,sans-serif" font-size="8" fill="#34c759">Answered · 1m</text>
  <text x="932" y="312" font-family="Inter,sans-serif" font-size="8" fill="#ccc" text-anchor="end">22min</text>

  <circle cx="760" cy="340" r="10" fill="#f0eaff"/>
  <text x="760" y="343" font-family="Inter,sans-serif" font-size="7" font-weight="600" fill="#7c3aed" text-anchor="middle">NP</text>
  <text x="776" y="337" font-family="Inter,sans-serif" font-size="10" font-weight="500" fill="#111">Nexus Pro</text>
  <text x="776" y="348" font-family="Inter,sans-serif" font-size="8" fill="#7c3aed">KORI · 3m</text>
  <text x="932" y="342" font-family="Inter,sans-serif" font-size="8" fill="#ccc" text-anchor="end">30min</text>

  <circle cx="760" cy="370" r="10" fill="#e6f9ee"/>
  <text x="760" y="373" font-family="Inter,sans-serif" font-size="7" font-weight="600" fill="#166534" text-anchor="middle">LB</text>
  <text x="776" y="367" font-family="Inter,sans-serif" font-size="10" font-weight="500" fill="#111">Laura B.</text>
  <text x="776" y="378" font-family="Inter,sans-serif" font-size="8" fill="#34c759">Answered · 6m</text>
  <text x="932" y="372" font-family="Inter,sans-serif" font-size="8" fill="#ccc" text-anchor="end">45min</text>

  <!-- ═══ Live Calls ═══ -->
  <rect x="954" y="172" width="226" height="210" rx="10" fill="#fff"/>
  <text x="970" y="196" font-family="Inter,sans-serif" font-size="12" font-weight="600" fill="#111">Live Now</text>
  <circle cx="1030" cy="192" r="4" fill="#34c759"/>
  <text x="1040" y="196" font-family="Inter,sans-serif" font-size="9" fill="#34c759">3 active</text>

  <rect x="966" y="210" width="200" height="44" rx="6" fill="#f7f6f5"/>
  <circle cx="982" cy="232" r="8" fill="#fef3c7"/>
  <text x="982" y="235" font-family="Inter,sans-serif" font-size="6" font-weight="600" fill="#92400e" text-anchor="middle">JD</text>
  <text x="996" y="226" font-family="Inter,sans-serif" font-size="9" font-weight="500" fill="#111">John D. → Sarah M.</text>
  <text x="996" y="238" font-family="Inter,sans-serif" font-size="8" fill="#34c759">04:23</text>
  <rect x="1130" y="224" width="24" height="14" rx="3" fill="#e6f9ee"/>
  <text x="1142" y="234" font-family="Inter,sans-serif" font-size="7" fill="#34c759" text-anchor="middle">HD</text>

  <rect x="966" y="260" width="200" height="44" rx="6" fill="#f7f6f5"/>
  <circle cx="982" cy="282" r="8" fill="#dbeafe"/>
  <text x="982" y="285" font-family="Inter,sans-serif" font-size="6" font-weight="600" fill="#1e40af" text-anchor="middle">TC</text>
  <text x="996" y="276" font-family="Inter,sans-serif" font-size="9" font-weight="500" fill="#111">Tom C. → Mike R.</text>
  <text x="996" y="288" font-family="Inter,sans-serif" font-size="8" fill="#34c759">01:47</text>
  <rect x="1130" y="274" width="24" height="14" rx="3" fill="#e6f9ee"/>
  <text x="1142" y="284" font-family="Inter,sans-serif" font-size="7" fill="#34c759" text-anchor="middle">HD</text>

  <rect x="966" y="310" width="200" height="44" rx="6" fill="#f8f6ff"/>
  <circle cx="982" cy="332" r="8" fill="#f0eaff"/>
  <text x="982" y="335" font-family="Inter,sans-serif" font-size="6" font-weight="600" fill="#7c3aed" text-anchor="middle">AI</text>
  <text x="996" y="326" font-family="Inter,sans-serif" font-size="9" font-weight="500" fill="#111">Unknown → KORI</text>
  <text x="996" y="338" font-family="Inter,sans-serif" font-size="8" fill="#7c3aed">00:32 · auto</text>
  <rect x="1120" y="324" width="36" height="14" rx="3" fill="#f0eaff"/>
  <text x="1138" y="334" font-family="Inter,sans-serif" font-size="7" fill="#7c3aed" text-anchor="middle">KORI</text>

  <line x1="966" y1="364" x2="1166" y2="364" stroke="#f0f0f0" stroke-width="1"/>
  <text x="970" y="378" font-family="Inter,sans-serif" font-size="8" fill="#999">Queue: 0 waiting</text>

  <!-- ═══ Team Chat ═══ -->
  <rect x="200" y="396" width="290" height="172" rx="10" fill="#fff"/>
  <text x="216" y="420" font-family="Inter,sans-serif" font-size="12" font-weight="600" fill="#111">Team Chat</text>
  <circle cx="298" cy="416" r="3" fill="#34c759"/>
  <text x="306" y="420" font-family="Inter,sans-serif" font-size="8" fill="#999">5 online</text>

  <rect x="216" y="432" width="64" height="18" rx="9" fill="#111"/>
  <text x="248" y="444" font-family="Inter,sans-serif" font-size="8" font-weight="500" fill="#fff" text-anchor="middle"># General</text>
  <rect x="286" y="432" width="52" height="18" rx="9" fill="#f0f0f0"/>
  <text x="312" y="444" font-family="Inter,sans-serif" font-size="8" font-weight="500" fill="#999" text-anchor="middle"># Sales</text>
  <rect x="344" y="432" width="64" height="18" rx="9" fill="#f0f0f0"/>
  <text x="376" y="444" font-family="Inter,sans-serif" font-size="8" font-weight="500" fill="#999" text-anchor="middle"># Support</text>

  <circle cx="224" cy="470" r="8" fill="#fef3c7"/>
  <text x="224" y="473" font-family="Inter,sans-serif" font-size="6" font-weight="600" fill="#92400e" text-anchor="middle">SM</text>
  <rect x="238" y="460" width="220" height="22" rx="6" fill="#f7f6f5"/>
  <text x="246" y="474" font-family="Inter,sans-serif" font-size="9" fill="#333">Closed the Nexus deal!</text>
  <text x="438" y="474" font-family="Inter,sans-serif" font-size="7" fill="#ccc">10:24</text>

  <circle cx="224" cy="498" r="8" fill="#dbeafe"/>
  <text x="224" y="501" font-family="Inter,sans-serif" font-size="6" font-weight="600" fill="#1e40af" text-anchor="middle">MR</text>
  <rect x="238" y="488" width="240" height="22" rx="6" fill="#f7f6f5"/>
  <text x="246" y="502" font-family="Inter,sans-serif" font-size="9" fill="#333">Client wants a callback at 3pm today</text>
  <text x="458" y="502" font-family="Inter,sans-serif" font-size="7" fill="#ccc">10:18</text>

  <circle cx="224" cy="526" r="8" fill="#e6f9ee"/>
  <text x="224" y="529" font-family="Inter,sans-serif" font-size="6" font-weight="600" fill="#166534" text-anchor="middle">LB</text>
  <rect x="238" y="516" width="190" height="22" rx="6" fill="#f7f6f5"/>
  <text x="246" y="530" font-family="Inter,sans-serif" font-size="9" fill="#333">On it, transferring now</text>
  <text x="408" y="530" font-family="Inter,sans-serif" font-size="7" fill="#ccc">10:15</text>

  <rect x="212" y="546" width="264" height="12" rx="4" fill="#f7f6f5"/>

  <!-- ═══ KORI AI ═══ -->
  <rect x="502" y="396" width="220" height="172" rx="10" fill="#fff"/>
  <text x="518" y="420" font-family="Inter,sans-serif" font-size="12" font-weight="600" fill="#7c3aed">KORI AI Insights</text>

  <rect x="518" y="434" width="186" height="24" rx="5" fill="#f8f6ff"/>
  <text x="528" y="450" font-family="Inter,sans-serif" font-size="9" fill="#7c3aed">38 calls auto-handled today</text>

  <rect x="518" y="464" width="186" height="24" rx="5" fill="#f8f6ff"/>
  <text x="528" y="480" font-family="Inter,sans-serif" font-size="9" fill="#7c3aed">12 follow-ups scheduled</text>

  <rect x="518" y="494" width="186" height="24" rx="5" fill="#f8f6ff"/>
  <text x="528" y="510" font-family="Inter,sans-serif" font-size="9" fill="#7c3aed">97% sentiment positive</text>

  <rect x="518" y="524" width="186" height="24" rx="5" fill="#f8f6ff"/>
  <text x="528" y="540" font-family="Inter,sans-serif" font-size="9" fill="#7c3aed">3 high-priority flagged</text>

  <!-- ═══ Integrations ═══ -->
  <rect x="734" y="396" width="208" height="172" rx="10" fill="#fff"/>
  <text x="750" y="420" font-family="Inter,sans-serif" font-size="12" font-weight="600" fill="#111">Connected Apps</text>

  <rect x="750" y="434" width="88" height="22" rx="5" fill="#f0f0f0"/>
  <rect x="756" y="438" width="14" height="14" rx="3" fill="#4285f4"/>
  <text x="776" y="448" font-family="Inter,sans-serif" font-size="8" fill="#333">Google Cal</text>
  <circle cx="832" cy="445" r="3" fill="#34c759"/>

  <rect x="846" y="434" width="82" height="22" rx="5" fill="#f0f0f0"/>
  <rect x="852" y="438" width="14" height="14" rx="3" fill="#0078d4"/>
  <text x="872" y="448" font-family="Inter,sans-serif" font-size="8" fill="#333">Teams</text>
  <circle cx="922" cy="445" r="3" fill="#34c759"/>

  <rect x="750" y="462" width="88" height="22" rx="5" fill="#f0f0f0"/>
  <rect x="756" y="466" width="14" height="14" rx="3" fill="#ff6c37"/>
  <text x="776" y="476" font-family="Inter,sans-serif" font-size="8" fill="#333">HubSpot</text>
  <circle cx="832" cy="473" r="3" fill="#34c759"/>

  <rect x="846" y="462" width="82" height="22" rx="5" fill="#f0f0f0"/>
  <rect x="852" y="466" width="14" height="14" rx="3" fill="#611f69"/>
  <text x="872" y="476" font-family="Inter,sans-serif" font-size="8" fill="#333">Slack</text>
  <circle cx="922" cy="473" r="3" fill="#34c759"/>

  <rect x="750" y="490" width="88" height="22" rx="5" fill="#f0f0f0"/>
  <rect x="756" y="494" width="14" height="14" rx="3" fill="#00a4ef"/>
  <text x="776" y="504" font-family="Inter,sans-serif" font-size="8" fill="#333">Salesforce</text>
  <circle cx="832" cy="501" r="3" fill="#34c759"/>

  <rect x="846" y="490" width="82" height="22" rx="5" fill="#f0f0f0"/>
  <rect x="852" y="494" width="14" height="14" rx="3" fill="#2684ff"/>
  <text x="872" y="504" font-family="Inter,sans-serif" font-size="8" fill="#333">Zapier</text>
  <circle cx="922" cy="501" r="3" fill="#34c759"/>

  <rect x="750" y="524" width="88" height="22" rx="5" fill="#f0f0f0"/>
  <rect x="756" y="528" width="14" height="14" rx="3" fill="#1da1f2"/>
  <text x="776" y="538" font-family="Inter,sans-serif" font-size="8" fill="#333">Outlook</text>
  <circle cx="832" cy="535" r="3" fill="#34c759"/>

  <text x="850" y="542" font-family="Inter,sans-serif" font-size="8" fill="#ee7700">+ Add more</text>

  <!-- ═══ Performance ═══ -->
  <rect x="954" y="396" width="226" height="172" rx="10" fill="#fff"/>
  <text x="970" y="420" font-family="Inter,sans-serif" font-size="12" font-weight="600" fill="#111">Team Performance</text>

  <text x="970" y="442" font-family="Inter,sans-serif" font-size="9" font-weight="500" fill="#111">Sarah M.</text>
  <rect x="1050" y="434" width="100" height="8" rx="4" fill="#f0f0f0"/>
  <rect x="1050" y="434" width="92" height="8" rx="4" fill="#34c759"/>
  <text x="1158" y="442" font-family="Inter,sans-serif" font-size="8" fill="#999">92%</text>

  <text x="970" y="464" font-family="Inter,sans-serif" font-size="9" font-weight="500" fill="#111">Mike R.</text>
  <rect x="1050" y="456" width="100" height="8" rx="4" fill="#f0f0f0"/>
  <rect x="1050" y="456" width="88" height="8" rx="4" fill="#34c759"/>
  <text x="1158" y="464" font-family="Inter,sans-serif" font-size="8" fill="#999">88%</text>

  <text x="970" y="486" font-family="Inter,sans-serif" font-size="9" font-weight="500" fill="#111">Laura B.</text>
  <rect x="1050" y="478" width="100" height="8" rx="4" fill="#f0f0f0"/>
  <rect x="1050" y="478" width="95" height="8" rx="4" fill="#34c759"/>
  <text x="1158" y="486" font-family="Inter,sans-serif" font-size="8" fill="#999">95%</text>

  <text x="970" y="508" font-family="Inter,sans-serif" font-size="9" font-weight="500" fill="#111">Tom C.</text>
  <rect x="1050" y="500" width="100" height="8" rx="4" fill="#f0f0f0"/>
  <rect x="1050" y="500" width="82" height="8" rx="4" fill="#ee7700"/>
  <text x="1158" y="508" font-family="Inter,sans-serif" font-size="8" fill="#999">82%</text>

  <text x="970" y="530" font-family="Inter,sans-serif" font-size="9" font-weight="500" fill="#111">KORI AI</text>
  <rect x="1050" y="522" width="100" height="8" rx="4" fill="#f0f0f0"/>
  <rect x="1050" y="522" width="100" height="8" rx="4" fill="#7c3aed"/>
  <text x="1158" y="530" font-family="Inter,sans-serif" font-size="8" fill="#999">100%</text>

  <line x1="966" y1="544" x2="1166" y2="544" stroke="#f0f0f0" stroke-width="1"/>
  <text x="970" y="560" font-family="Inter,sans-serif" font-size="8" fill="#999">Team avg: 91% answer rate</text>

  <!-- ═══ Bottom Bar ═══ -->
  <rect x="200" y="582" width="980" height="44" rx="10" fill="#fff"/>
  <text x="220" y="608" font-family="Inter,sans-serif" font-size="10" font-weight="500" fill="#111">Upcoming</text>
  <text x="300" y="608" font-family="Inter,sans-serif" font-size="9" fill="#999">Callback: John D. at 2:00 PM</text>
  <circle cx="476" cy="604" r="2" fill="#ccc"/>
  <text x="488" y="608" font-family="Inter,sans-serif" font-size="9" fill="#999">Team standup at 3:00 PM</text>
  <circle cx="636" cy="604" r="2" fill="#ccc"/>
  <text x="648" y="608" font-family="Inter,sans-serif" font-size="9" fill="#999">Client demo at 4:30 PM</text>
  <circle cx="806" cy="604" r="2" fill="#ccc"/>
  <text x="818" y="608" font-family="Inter,sans-serif" font-size="9" fill="#7c3aed">+4 more today</text>

  <!-- ═══ Animated Cursor + Popups ═══ -->
  <defs>
    <filter id="popup-shadow">
      <feDropShadow dx="0" dy="3" stdDeviation="6" flood-opacity="0.12"/>
    </filter>
  </defs>

  <!-- Click ripples -->
  <circle cx="80" cy="156" r="0" fill="none" stroke="#ee7700" stroke-width="1.5" opacity="0">
    <animate attributeName="r" values="0;14" dur="0.4s" begin="2.2s;18.2s;34.2s;50.2s" fill="freeze"/>
    <animate attributeName="opacity" values="0.5;0" dur="0.4s" begin="2.2s;18.2s;34.2s;50.2s" fill="freeze"/>
  </circle>
  <circle cx="560" cy="120" r="0" fill="none" stroke="#7c3aed" stroke-width="1.5" opacity="0">
    <animate attributeName="r" values="0;14" dur="0.4s" begin="4.8s;20.8s;36.8s;52.8s" fill="freeze"/>
    <animate attributeName="opacity" values="0.5;0" dur="0.4s" begin="4.8s;20.8s;36.8s;52.8s" fill="freeze"/>
  </circle>
  <circle cx="390" cy="252" r="0" fill="none" stroke="#ee7700" stroke-width="1.5" opacity="0">
    <animate attributeName="r" values="0;14" dur="0.4s" begin="7.4s;23.4s;39.4s;55.4s" fill="freeze"/>
    <animate attributeName="opacity" values="0.5;0" dur="0.4s" begin="7.4s;23.4s;39.4s;55.4s" fill="freeze"/>
  </circle>
  <circle cx="800" cy="250" r="0" fill="none" stroke="#ee7700" stroke-width="1.5" opacity="0">
    <animate attributeName="r" values="0;14" dur="0.4s" begin="10s;26s;42s;58s" fill="freeze"/>
    <animate attributeName="opacity" values="0.5;0" dur="0.4s" begin="10s;26s;42s;58s" fill="freeze"/>
  </circle>
  <circle cx="560" cy="450" r="0" fill="none" stroke="#7c3aed" stroke-width="1.5" opacity="0">
    <animate attributeName="r" values="0;14" dur="0.4s" begin="12.5s;28.5s;44.5s;60.5s" fill="freeze"/>
    <animate attributeName="opacity" values="0.5;0" dur="0.4s" begin="12.5s;28.5s;44.5s;60.5s" fill="freeze"/>
  </circle>

  <!-- ═══ Popup 1: Incoming Call (on Calls click) ═══ -->
  <g opacity="0" filter="url(#popup-shadow)">
    <animate attributeName="opacity" values="0;1;1;0" keyTimes="0;0.15;0.8;1" dur="1.4s" begin="2.3s;18.3s;34.3s;50.3s" fill="freeze"/>
    <rect x="192" y="108" width="185" height="100" rx="8" fill="#fff"/>
    <rect x="192" y="108" width="185" height="28" rx="8" fill="#ee7700"/>
    <rect x="192" y="124" width="185" height="12" fill="#ee7700"/>
    <circle cx="208" cy="122" r="6" fill="#fff" opacity="0.3"/>
    <text x="220" y="126" font-family="Inter,sans-serif" font-size="10" font-weight="600" fill="#fff">Incoming Call</text>
    <text x="206" y="152" font-family="Inter,sans-serif" font-size="11" font-weight="600" fill="#111">Acme Corp</text>
    <text x="206" y="166" font-family="Inter,sans-serif" font-size="9" fill="#999">+1 (416) 555-0198</text>
    <rect x="206" y="178" width="56" height="20" rx="4" fill="#34c759"/>
    <text x="234" y="192" font-family="Inter,sans-serif" font-size="8" font-weight="600" fill="#fff" text-anchor="middle">Accept</text>
    <rect x="268" y="178" width="56" height="20" rx="4" fill="#f0f0f0"/>
    <text x="296" y="192" font-family="Inter,sans-serif" font-size="8" font-weight="500" fill="#666" text-anchor="middle">Transfer</text>
    <rect x="330" y="178" width="36" height="20" rx="4" fill="#fee2e2"/>
    <text x="348" y="192" font-family="Inter,sans-serif" font-size="8" font-weight="500" fill="#dc2626" text-anchor="middle">End</text>
  </g>

  <!-- ═══ Popup 2: KORI Breakdown (on stat click) ═══ -->
  <g opacity="0" filter="url(#popup-shadow)">
    <animate attributeName="opacity" values="0;1;1;0" keyTimes="0;0.15;0.8;1" dur="1.4s" begin="4.9s;20.9s;36.9s;52.9s" fill="freeze"/>
    <rect x="508" y="166" width="150" height="108" rx="8" fill="#fff"/>
    <text x="522" y="186" font-family="Inter,sans-serif" font-size="10" font-weight="600" fill="#7c3aed">KORI Breakdown</text>
    <line x1="522" y1="194" x2="644" y2="194" stroke="#f0eaff" stroke-width="1"/>
    <circle cx="530" cy="212" r="4" fill="#f0eaff"/>
    <text x="540" y="215" font-family="Inter,sans-serif" font-size="9" fill="#333">Voicemail replies</text>
    <text x="640" y="215" font-family="Inter,sans-serif" font-size="9" font-weight="600" fill="#7c3aed" text-anchor="end">12</text>
    <circle cx="530" cy="232" r="4" fill="#f0eaff"/>
    <text x="540" y="235" font-family="Inter,sans-serif" font-size="9" fill="#333">Smart routing</text>
    <text x="640" y="235" font-family="Inter,sans-serif" font-size="9" font-weight="600" fill="#7c3aed" text-anchor="end">15</text>
    <circle cx="530" cy="252" r="4" fill="#f0eaff"/>
    <text x="540" y="255" font-family="Inter,sans-serif" font-size="9" fill="#333">FAQ handled</text>
    <text x="640" y="255" font-family="Inter,sans-serif" font-size="9" font-weight="600" fill="#7c3aed" text-anchor="end">11</text>
  </g>

  <!-- ═══ Popup 3: Chart Tooltip (on bar click) ═══ -->
  <g opacity="0" filter="url(#popup-shadow)">
    <animate attributeName="opacity" values="0;1;1;0" keyTimes="0;0.15;0.8;1" dur="1.4s" begin="7.5s;23.5s;39.5s;55.5s" fill="freeze"/>
    <rect x="340" y="192" width="140" height="62" rx="8" fill="#111"/>
    <!-- tooltip arrow -->
    <polygon points="390,254 398,262 382,262" fill="#111"/>
    <text x="354" y="210" font-family="Inter,sans-serif" font-size="10" font-weight="600" fill="#fff">Wednesday</text>
    <text x="354" y="226" font-family="Inter,sans-serif" font-size="9" fill="#ccc">187 calls · 58 KORI</text>
    <text x="354" y="242" font-family="Inter,sans-serif" font-size="9" fill="#34c759">Avg wait: 4s ↓</text>
  </g>

  <!-- ═══ Popup 4: Contact Card (on Amy L. click) ═══ -->
  <g opacity="0" filter="url(#popup-shadow)">
    <animate attributeName="opacity" values="0;1;1;0" keyTimes="0;0.15;0.8;1" dur="1.4s" begin="10.1s;26.1s;42.1s;58.1s" fill="freeze"/>
    <rect x="748" y="268" width="190" height="112" rx="8" fill="#fff"/>
    <circle cx="770" cy="292" r="12" fill="#f0eaff"/>
    <text x="770" y="296" font-family="Inter,sans-serif" font-size="8" font-weight="600" fill="#7c3aed" text-anchor="middle">AL</text>
    <text x="788" y="288" font-family="Inter,sans-serif" font-size="11" font-weight="600" fill="#111">Amy Liu</text>
    <text x="788" y="300" font-family="Inter,sans-serif" font-size="8" fill="#999">Nexus Solutions · Sales</text>
    <line x1="762" y1="312" x2="924" y2="312" stroke="#f0f0f0" stroke-width="1"/>
    <text x="762" y="328" font-family="Inter,sans-serif" font-size="8" fill="#999">Duration</text>
    <text x="820" y="328" font-family="Inter,sans-serif" font-size="8" font-weight="600" fill="#111">2m 34s</text>
    <text x="762" y="344" font-family="Inter,sans-serif" font-size="8" fill="#999">Handled by</text>
    <rect x="820" y="336" width="36" height="14" rx="3" fill="#f0eaff"/>
    <text x="838" y="346" font-family="Inter,sans-serif" font-size="7" font-weight="600" fill="#7c3aed" text-anchor="middle">KORI</text>
    <text x="762" y="360" font-family="Inter,sans-serif" font-size="8" fill="#999">Sentiment</text>
    <text x="820" y="360" font-family="Inter,sans-serif" font-size="8" font-weight="600" fill="#34c759">Positive</text>
    <rect x="762" y="368" width="162" height="0" rx="3" fill="#ee7700"/>
  </g>

  <!-- ═══ Popup 5: KORI Report (on KORI AI click) ═══ -->
  <g opacity="0" filter="url(#popup-shadow)">
    <animate attributeName="opacity" values="0;1;1;0" keyTimes="0;0.15;0.8;1" dur="1.4s" begin="12.6s;28.6s;44.6s;60.6s" fill="freeze"/>
    <rect x="500" y="388" width="224" height="120" rx="8" fill="#fff"/>
    <rect x="500" y="388" width="224" height="30" rx="8" fill="#7c3aed"/>
    <rect x="500" y="406" width="224" height="12" fill="#7c3aed"/>
    <text x="516" y="408" font-family="Inter,sans-serif" font-size="10" font-weight="600" fill="#fff">KORI AI — Daily Report</text>
    <text x="516" y="436" font-family="Inter,sans-serif" font-size="9" fill="#333">Avg response time</text>
    <text x="706" y="436" font-family="Inter,sans-serif" font-size="9" font-weight="600" fill="#111" text-anchor="end">1.2s</text>
    <text x="516" y="454" font-family="Inter,sans-serif" font-size="9" fill="#333">Resolution rate</text>
    <text x="706" y="454" font-family="Inter,sans-serif" font-size="9" font-weight="600" fill="#34c759" text-anchor="end">97.4%</text>
    <text x="516" y="472" font-family="Inter,sans-serif" font-size="9" fill="#333">Escalated to human</text>
    <text x="706" y="472" font-family="Inter,sans-serif" font-size="9" font-weight="600" fill="#ee7700" text-anchor="end">1 call</text>
    <line x1="516" y1="480" x2="710" y2="480" stroke="#f0f0f0" stroke-width="1"/>
    <text x="516" y="496" font-family="Inter,sans-serif" font-size="8" fill="#999">Top queries: Billing, Hours, Pricing</text>
  </g>

  <!-- Cursor -->
  <g>
    <animateTransform attributeName="transform" type="translate"
      values="1020,52; 1020,52; 80,156; 80,156; 560,120; 560,120; 390,252; 390,252; 800,250; 800,250; 560,450; 560,450; 1020,52"
      keyTimes="0; 0.05; 0.14; 0.22; 0.30; 0.38; 0.46; 0.54; 0.62; 0.70; 0.78; 0.86; 1"
      dur="16s" repeatCount="indefinite"
      calcMode="spline"
      keySplines="0 0 1 1; 0.4 0 0.2 1; 0 0 1 1; 0.4 0 0.2 1; 0 0 1 1; 0.4 0 0.2 1; 0 0 1 1; 0.4 0 0.2 1; 0 0 1 1; 0.4 0 0.2 1; 0 0 1 1; 0.4 0 0.2 1"/>
    <path d="M0,0 L0,15 L4,11 L7.5,17 L10,16 L6.5,10 L12,10 Z" fill="#111" stroke="#fff" stroke-width="0.8" stroke-linejoin="round"/>
  </g>
</svg>
