<svg xmlns="http://www.w3.org/2000/svg" viewBox="0 0 400 300" fill="none">
  <rect width="400" height="300" fill="none"/>

  <rect x="8" y="8" width="90" height="60" rx="10" fill="#f0f0f0"/>
  <text x="20" y="28" font-family="Inter,sans-serif" font-size="9" fill="#999">Total Calls</text>
  <text x="20" y="54" font-family="Inter,sans-serif" font-size="22" font-weight="700" fill="#111">847</text>

  <rect x="106" y="8" width="90" height="60" rx="10" fill="#f0f0f0"/>
  <text x="118" y="28" font-family="Inter,sans-serif" font-size="9" fill="#999">Answered</text>
  <text x="118" y="54" font-family="Inter,sans-serif" font-size="22" font-weight="700" fill="#34c759">94%</text>

  <rect x="204" y="8" width="90" height="60" rx="10" fill="#f0f0f0"/>
  <text x="216" y="28" font-family="Inter,sans-serif" font-size="9" fill="#999">Avg. Wait</text>
  <text x="216" y="54" font-family="Inter,sans-serif" font-size="22" font-weight="700" fill="#111">8s</text>

  <rect x="302" y="8" width="90" height="60" rx="10" fill="#f0f0f0"/>
  <text x="314" y="28" font-family="Inter,sans-serif" font-size="9" fill="#999">KORI Saves</text>
  <text x="314" y="54" font-family="Inter,sans-serif" font-size="22" font-weight="700" fill="#7c3aed">52</text>

  <line x1="8" y1="260" x2="392" y2="260" stroke="#eee" stroke-width="1"/>
  <rect x="18" y="150" width="44" height="110" rx="6" fill="#ee7700"/>
  <text x="40" y="280" font-family="Inter,sans-serif" font-size="10" fill="#999" text-anchor="middle">M</text>
  <rect x="74" y="110" width="44" height="150" rx="6" fill="#ee7700"/>
  <text x="96" y="280" font-family="Inter,sans-serif" font-size="10" fill="#999" text-anchor="middle">T</text>
  <rect x="130" y="94" width="44" height="166" rx="6" fill="#ee7700"/>
  <text x="152" y="280" font-family="Inter,sans-serif" font-size="10" fill="#999" text-anchor="middle">W</text>
  <rect x="186" y="130" width="44" height="130" rx="6" fill="#ee7700"/>
  <text x="208" y="280" font-family="Inter,sans-serif" font-size="10" fill="#999" text-anchor="middle">T</text>
  <rect x="242" y="86" width="44" height="174" rx="6" fill="#ee7700"/>
  <text x="264" y="280" font-family="Inter,sans-serif" font-size="10" fill="#999" text-anchor="middle">F</text>
  <rect x="298" y="196" width="44" height="64" rx="6" fill="#ee7700"/>
  <text x="320" y="280" font-family="Inter,sans-serif" font-size="10" fill="#999" text-anchor="middle">S</text>
  <rect x="354" y="216" width="38" height="44" rx="6" fill="#ee7700"/>
  <text x="373" y="280" font-family="Inter,sans-serif" font-size="10" fill="#999" text-anchor="middle">S</text>
</svg>
