<svg xmlns="http://www.w3.org/2000/svg" viewBox="0 0 400 300" fill="none">
  <rect width="400" height="300" fill="none"/>

  <rect x="8" y="8" width="80" height="26" rx="13" fill="#fef3c7"/>
  <text x="48" y="26" font-family="Inter,sans-serif" font-size="10" font-weight="500" fill="#92400e" text-anchor="middle">High priority</text>
  <rect x="96" y="8" width="90" height="26" rx="13" fill="#dbeafe"/>
  <text x="141" y="26" font-family="Inter,sans-serif" font-size="10" font-weight="500" fill="#1e40af" text-anchor="middle">New customer</text>

  <rect x="8" y="46" width="384" height="86" rx="12" fill="#f8f6ff" stroke="#e9e3ff" stroke-width="1"/>
  <text x="22" y="66" font-family="Inter,sans-serif" font-size="12" font-weight="600" fill="#7c3aed">AI Summary</text>
  <text x="22" y="88" font-family="Inter,sans-serif" font-size="13" fill="#444">Wants to upgrade to 10+ lines.</text>
  <text x="22" y="108" font-family="Inter,sans-serif" font-size="13" fill="#444">Callback tomorrow 2:00 PM.</text>
  <text x="22" y="126" font-family="Inter,sans-serif" font-size="10" fill="#7c3aed" font-weight="500">Positive · ★★★★★</text>

  <rect x="8" y="148" width="280" height="38" rx="14" fill="#f8f6ff"/>
  <text x="22" y="164" font-family="Inter,sans-serif" font-size="10" font-weight="600" fill="#7c3aed">KORI</text>
  <text x="22" y="178" font-family="Inter,sans-serif" font-size="13" fill="#444">Thanks for calling EMAK!</text>

  <rect x="120" y="200" width="272" height="38" rx="14" fill="#f0f0f0"/>
  <text x="134" y="216" font-family="Inter,sans-serif" font-size="10" font-weight="600" fill="#ee7700">Caller</text>
  <text x="134" y="230" font-family="Inter,sans-serif" font-size="13" fill="#444">I'd like to upgrade our plan.</text>

  <rect x="8" y="254" width="120" height="36" rx="8" fill="#ee7700"/>
  <text x="68" y="277" font-family="Inter,sans-serif" font-size="12" font-weight="500" fill="#fff" text-anchor="middle">Follow up</text>
  <rect x="136" y="254" width="120" height="36" rx="8" fill="#f0f0f0"/>
  <text x="196" y="277" font-family="Inter,sans-serif" font-size="12" font-weight="500" fill="#333" text-anchor="middle">View log</text>
</svg>
